<svg width="28" height="28" viewBox="0 0 28 28" fill="none" xmlns="http://www.w3.org/2000/svg">
<g clip-path="url(#clip0_58_61)">
<path d="M0 0.000396729H6.42622H12.8524V2.75452H0V0.000396729ZM0 5.04954H12.8524V7.80361H0V5.04954ZM0 10.0987V12.8528H12.8524V10.0987H0ZM25.2458 0.000396729H27.9999V12.8529H25.2458V0.000396729ZM20.1966 0.000396729H22.9507V6.42663V12.8529H20.1966V0.000396729ZM15.1475 0.000396729V12.8528H17.9016V0.000396729H15.1475ZM15.1475 25.2463H27.9999V28.0004H15.1475V25.2463ZM15.1475 20.1971H27.9999V22.9511H15.1475V20.1971ZM24.0984 15.1479H15.1475V17.902H28V15.1479H24.0984ZM0 15.1479H2.75412V28.0004H0V15.1479ZM5.04919 15.1479H7.80325V28.0004H5.04919V15.1479ZM10.0983 15.1479V28.0003H12.8524V15.1479H10.0983Z" fill="#6D28D9"/>
</g>
<defs>
<clipPath id="clip0_58_61">
<rect width="28" height="28" fill="white"/>
</clipPath>
</defs>
</svg>
